<svg version="1" xmlns="http://www.w3.org/2000/svg" width="520" height="520" viewBox="0 0 390.000000 390.000000"><path d="M178 57.6c-20.1 5.7-43.7 12.4-52.5 14.9-24.9 7-25.5 7.2-34.5 9.9l-8.5 2.5-8.4 30.8c-4.5 16.9-10 37.1-12.2 44.8-2.1 7.7-6.3 23-9.3 34l-5.5 20 15.7 15.7C71.4 238.9 78.7 246 79 246c.3 0 5-16.3 10.3-36.3 5.3-19.9 12.2-45.4 15.2-56.7 3.1-11.3 6.5-23.9 7.5-28 1.1-4.1 2.3-7.7 2.8-8.1.4-.4 30-9 65.7-19 35.8-10 65.2-18.4 65.5-18.6.2-.2-6.8-7.5-15.5-16.2l-16-15.9L178 57.6zM180.7 177.4C136.3 222 99 259.5 97.8 260.8l-2.3 2.2 15.5 15.5c8.5 8.5 15.9 15.5 16.5 15.5.5 0 38.5-37.5 84.3-83.3l83.2-83.2-15.8-15.8c-8.6-8.6-16.2-15.6-16.7-15.6-.6.1-37.3 36.7-81.8 81.3zM308.5 146.7c-.3 2.1-1.5 6.5-2.5 9.8-2.4 7.8-3.7 12.4-11.6 40.5-3.6 12.9-8.5 30.5-10.9 39-2.4 8.5-5.8 20.7-7.5 27.1l-3.3 11.6-9.6 2.6c-16.1 4.4-57.9 15.7-69.6 18.7-25.6 6.7-49.1 13.2-49.7 13.9-.4.4 6.4 7.8 15.1 16.5l15.8 15.8 5.4-1.6c3-.9 25.4-7 49.9-13.6s46.8-12.7 49.5-13.6c2.8-.8 6.2-1.7 7.5-1.9 1.4-.3 5.9-1.5 10-2.8l7.5-2.3 6.1-21.4c11.7-40.9 30.6-107.5 30.9-109 .2-1.4-30.1-33-31.6-33-.4 0-1 1.7-1.4 3.7z"/></svg>